<svg width="1373" height="295" fill="none" xmlns="http://www.w3.org/2000/svg"><path fill-rule="evenodd" clip-rule="evenodd" d="M99 220c46.033-2.62 86.807-13.095 121-28.81C204.217 119.168 164.761 56.311 109.523 0c22.358 58.93 1.314 201.667-10.521 219.997L99 220zM0 228.8c58.904 18.286 167.1 17.143 220 0-13.223 88-206.772 88-220 0z" fill="#017EFF"/><path d="M378.08 228.04c-11.293 0-21.267-1.907-29.92-5.72-8.653-3.96-15.473-9.533-20.46-16.72-4.987-7.333-7.553-16.207-7.7-26.62h29.7c.293 7.187 2.86 13.273 7.7 18.26 4.987 4.84 11.807 7.26 20.46 7.26 7.48 0 13.42-1.76 17.82-5.28 4.4-3.667 6.6-8.507 6.6-14.52 0-6.307-1.98-11.22-5.94-14.74-3.813-3.52-8.947-6.38-15.4-8.58-6.453-2.2-13.347-4.547-20.68-7.04-11.88-4.107-20.973-9.387-27.28-15.84-6.16-6.453-9.24-15.033-9.24-25.74-.147-9.093 1.98-16.867 6.38-23.32 4.547-6.6 10.707-11.66 18.48-15.18 7.773-3.667 16.72-5.5 26.84-5.5 10.267 0 19.287 1.833 27.06 5.5 7.92 3.667 14.08 8.8 18.48 15.4 4.547 6.6 6.967 14.447 7.26 23.54H398.1c-.147-5.427-2.273-10.193-6.38-14.3-3.96-4.253-9.533-6.38-16.72-6.38-6.16-.147-11.367 1.393-15.62 4.62-4.107 3.08-6.16 7.627-6.16 13.64 0 5.133 1.613 9.24 4.84 12.32 3.227 2.933 7.627 5.427 13.2 7.48 5.573 2.053 11.953 4.253 19.14 6.6 7.627 2.64 14.593 5.72 20.9 9.24 6.307 3.52 11.367 8.213 15.18 14.08 3.813 5.72 5.72 13.127 5.72 22.22 0 8.067-2.053 15.547-6.16 22.44-4.107 6.893-10.193 12.467-18.26 16.72-8.067 4.107-17.967 6.16-29.7 6.16zM493.73 228.04c-9.387 0-17.087-1.467-23.1-4.4-6.014-3.08-10.487-7.113-13.42-12.1-2.934-4.987-4.4-10.487-4.4-16.5 0-10.12 3.96-18.333 11.88-24.64 7.92-6.307 19.8-9.46 35.64-9.46h27.72v-2.64c0-7.48-2.127-12.98-6.38-16.5-4.254-3.52-9.534-5.28-15.84-5.28-5.72 0-10.707 1.393-14.96 4.18-4.254 2.64-6.894 6.6-7.92 11.88h-27.5c.733-7.92 3.373-14.813 7.92-20.68 4.693-5.867 10.706-10.34 18.04-13.42 7.333-3.227 15.546-4.84 24.64-4.84 15.546 0 27.793 3.887 36.74 11.66 8.946 7.773 13.42 18.773 13.42 33v67.1h-23.98l-2.64-17.6c-3.227 5.867-7.774 10.707-13.64 14.52-5.72 3.813-13.127 5.72-22.22 5.72zm6.38-22c8.066 0 14.3-2.64 18.7-7.92 4.546-5.28 7.406-11.807 8.58-19.58h-23.98c-7.48 0-12.834 1.393-16.06 4.18-3.227 2.64-4.84 5.94-4.84 9.9 0 4.253 1.613 7.553 4.84 9.9 3.226 2.347 7.48 3.52 12.76 3.52zM598.262 99.34c-5.133 0-9.386-1.54-12.76-4.62-3.226-3.08-4.84-6.967-4.84-11.66 0-4.693 1.614-8.507 4.84-11.44 3.374-3.08 7.627-4.62 12.76-4.62 5.134 0 9.314 1.54 12.54 4.62 3.374 2.933 5.06 6.747 5.06 11.44s-1.686 8.58-5.06 11.66c-3.226 3.08-7.406 4.62-12.54 4.62zm-14.08 126.06V116.28h28.16V225.4h-28.16zM641.735 225.4V67h28.16v158.4h-28.16zM763.348 228.04c-8.213 0-15.4-1.54-21.56-4.62-6.16-3.08-11.147-7.407-14.96-12.98l-3.08 14.96h-25.08V67h28.16v64.9c3.52-4.84 8.14-9.093 13.86-12.76 5.867-3.667 13.42-5.5 22.66-5.5 10.267 0 19.433 2.493 27.5 7.48s14.447 11.807 19.14 20.46c4.693 8.653 7.04 18.48 7.04 29.48s-2.347 20.827-7.04 29.48c-4.693 8.507-11.073 15.253-19.14 20.24-8.067 4.84-17.233 7.26-27.5 7.26zm-5.94-24.64c8.947 0 16.353-3.007 22.22-9.02 5.867-6.013 8.8-13.787 8.8-23.32s-2.933-17.38-8.8-23.54c-5.867-6.16-13.273-9.24-22.22-9.24-9.093 0-16.573 3.08-22.44 9.24-5.72 6.013-8.58 13.787-8.58 23.32s2.86 17.38 8.58 23.54c5.867 6.013 13.347 9.02 22.44 9.02zM894.544 228.04c-10.56 0-20.094-2.42-28.6-7.26-8.36-4.84-15.034-11.513-20.02-20.02-4.84-8.653-7.26-18.627-7.26-29.92 0-11.293 2.493-21.193 7.48-29.7 4.986-8.653 11.66-15.4 20.02-20.24 8.506-4.84 18.04-7.26 28.6-7.26 10.413 0 19.8 2.42 28.16 7.26 8.506 4.84 15.18 11.587 20.02 20.24 4.986 8.507 7.48 18.407 7.48 29.7s-2.494 21.267-7.48 29.92c-4.84 8.507-11.514 15.18-20.02 20.02-8.507 4.84-17.967 7.26-28.38 7.26zm0-24.42c7.333 0 13.713-2.713 19.14-8.14 5.426-5.573 8.14-13.787 8.14-24.64s-2.714-18.993-8.14-24.42c-5.427-5.573-11.734-8.36-18.92-8.36-7.48 0-13.934 2.787-19.36 8.36-5.28 5.427-7.92 13.567-7.92 24.42 0 10.853 2.64 19.067 7.92 24.64 5.426 5.427 11.806 8.14 19.14 8.14zM1013.22 228.04c-9.38 0-17.085-1.467-23.098-4.4-6.014-3.08-10.487-7.113-13.42-12.1-2.934-4.987-4.4-10.487-4.4-16.5 0-10.12 3.96-18.333 11.88-24.64 7.92-6.307 19.798-9.46 35.638-9.46h27.72v-2.64c0-7.48-2.12-12.98-6.38-16.5-4.25-3.52-9.53-5.28-15.84-5.28-5.72 0-10.7 1.393-14.96 4.18-4.25 2.64-6.89 6.6-7.92 11.88h-27.498c.733-7.92 3.373-14.813 7.92-20.68 4.693-5.867 10.706-10.34 18.038-13.42 7.34-3.227 15.55-4.84 24.64-4.84 15.55 0 27.8 3.887 36.74 11.66 8.95 7.773 13.42 18.773 13.42 33v67.1h-23.98l-2.64-17.6c-3.22 5.867-7.77 10.707-13.64 14.52-5.72 3.813-13.12 5.72-22.22 5.72zm6.38-22c8.07 0 14.3-2.64 18.7-7.92 4.55-5.28 7.41-11.807 8.58-19.58h-23.98c-7.48 0-12.83 1.393-16.06 4.18-3.22 2.64-4.84 5.94-4.84 9.9 0 4.253 1.62 7.553 4.84 9.9 3.23 2.347 7.48 3.52 12.76 3.52zM1149.69 225.4c-11.44 0-20.61-2.787-27.5-8.36-6.89-5.573-10.34-15.473-10.34-29.7v-47.52h-18.7v-23.54h18.7l3.3-29.26h24.86v29.26h29.48v23.54h-29.48v47.74c0 5.28 1.1 8.947 3.3 11 2.35 1.907 6.31 2.86 11.88 2.86h13.64v23.98h-19.14zM1253.73 228.04c-11.3 0-21.49-2.2-30.58-6.6-9.1-4.547-16.36-11.367-21.78-20.46-5.28-9.093-7.92-20.607-7.92-34.54V71.4h28.16v95.26c0 12.027 2.86 20.973 8.58 26.84 5.86 5.867 13.93 8.8 24.2 8.8 10.12 0 18.11-2.933 23.98-8.8 5.86-5.867 8.8-14.813 8.8-26.84V71.4h28.16v95.04c0 13.933-2.79 25.447-8.36 34.54-5.58 9.093-13.06 15.913-22.44 20.46-9.24 4.4-19.51 6.6-30.8 6.6zM1344.07 225.4v-154h28.16v154h-28.16z" fill="#fff"/></svg>