<svg width="151" height="33" fill="none" xmlns="http://www.w3.org/2000/svg">
  <path fill-rule="evenodd" clip-rule="evenodd"
    d="M11.577 24.28c4.997-.284 9.423-1.421 13.135-3.127C22.998 13.335 18.715 6.513 12.719.4c2.427 6.397.143 21.89-1.142 23.88zM.83 25.236c6.395 1.985 18.14 1.86 23.881 0-1.435 9.552-22.444 9.552-23.88 0z"
    fill="#017EFF" />
  <path
    d="M39.659 25.084c-1.218 0-2.294-.206-3.227-.617-.933-.427-1.669-1.028-2.206-1.803-.538-.791-.815-1.748-.83-2.871h3.202c.032.775.309 1.431.83 1.97.539.521 1.274.782 2.207.782.807 0 1.448-.19 1.922-.57.475-.395.712-.917.712-1.565 0-.68-.214-1.21-.64-1.59-.412-.38-.966-.688-1.661-.925l-2.23-.76c-1.282-.443-2.263-1.012-2.943-1.708-.664-.696-.996-1.621-.996-2.776-.016-.98.213-1.819.688-2.515.49-.712 1.154-1.257 1.993-1.637.838-.395 1.803-.593 2.894-.593 1.107 0 2.08.198 2.919.593.854.395 1.518.95 1.993 1.66.49.713.751 1.559.783 2.54h-3.25c-.017-.586-.246-1.1-.689-1.543-.427-.458-1.028-.688-1.803-.688-.664-.015-1.226.15-1.685.499-.443.332-.664.822-.664 1.47 0 .554.174.997.522 1.33.348.316.822.585 1.423.806.602.221 1.29.459 2.065.712.822.284 1.574.617 2.254.996.68.38 1.226.886 1.637 1.519.411.617.617 1.415.617 2.396 0 .87-.222 1.677-.665 2.42-.443.744-1.099 1.345-1.969 1.803-.87.443-1.938.665-3.203.665zM52.132 25.084c-1.013 0-1.843-.158-2.492-.475-.648-.332-1.13-.767-1.447-1.305a3.446 3.446 0 01-.475-1.78c0-1.09.427-1.976 1.282-2.657.854-.68 2.135-1.02 3.843-1.02h2.99v-.285c0-.806-.23-1.4-.688-1.779-.459-.38-1.028-.57-1.709-.57-.616 0-1.154.15-1.613.451-.459.285-.743.712-.854 1.282h-2.966c.08-.855.364-1.598.854-2.23a4.844 4.844 0 011.946-1.448c.79-.348 1.677-.522 2.657-.522 1.677 0 2.998.42 3.962 1.258.965.838 1.448 2.024 1.448 3.559v7.236h-2.586l-.285-1.898a4.352 4.352 0 01-1.471 1.566c-.617.411-1.416.617-2.396.617zm.688-2.373c.87 0 1.542-.285 2.016-.854.49-.57.8-1.273.926-2.112h-2.587c-.806 0-1.384.15-1.732.451-.347.285-.521.64-.521 1.068 0 .459.174.814.521 1.067.348.254.807.38 1.377.38zM63.405 11.204c-.553 0-1.012-.166-1.376-.498-.348-.333-.522-.752-.522-1.258s.174-.917.522-1.234c.364-.332.822-.498 1.376-.498.554 0 1.004.166 1.352.498.364.317.546.728.546 1.234s-.182.925-.546 1.258c-.348.332-.798.498-1.352.498zm-1.518 13.595V13.031h3.037v11.768h-3.037zM68.093 24.8V7.715h3.037V24.8h-3.037zM81.21 25.084c-.887 0-1.662-.166-2.326-.498a4.192 4.192 0 01-1.614-1.4l-.332 1.613h-2.704V7.716h3.037v7c.38-.523.877-.981 1.494-1.377.633-.395 1.448-.593 2.444-.593 1.107 0 2.096.269 2.966.807a5.779 5.779 0 012.064 2.206c.506.933.76 1.993.76 3.18 0 1.186-.254 2.246-.76 3.179a5.826 5.826 0 01-2.064 2.183c-.87.522-1.859.783-2.966.783zm-.641-2.658c.964 0 1.763-.324 2.396-.972.633-.649.949-1.487.949-2.515 0-1.029-.316-1.875-.95-2.54-.632-.663-1.43-.996-2.395-.996-.981 0-1.788.333-2.42.997-.618.648-.926 1.487-.926 2.515s.308 1.874.925 2.539c.633.648 1.44.972 2.42.972zM95.358 25.084c-1.139 0-2.167-.261-3.084-.783a5.89 5.89 0 01-2.16-2.16c-.521-.932-.782-2.008-.782-3.226s.269-2.286.806-3.203a5.838 5.838 0 012.16-2.183c.917-.522 1.945-.783 3.084-.783 1.123 0 2.135.261 3.037.783a5.616 5.616 0 012.159 2.183c.538.917.807 1.985.807 3.203 0 1.218-.269 2.294-.807 3.227a5.663 5.663 0 01-2.16 2.159c-.917.522-1.937.783-3.06.783zm0-2.634c.791 0 1.48-.293 2.064-.878.586-.6.878-1.487.878-2.657s-.292-2.049-.878-2.634c-.585-.6-1.265-.901-2.04-.901-.807 0-1.503.3-2.088.901-.57.585-.854 1.463-.854 2.634 0 1.17.285 2.056.854 2.657.585.585 1.273.878 2.064.878zM108.157 25.084c-1.012 0-1.842-.158-2.491-.475-.648-.332-1.131-.767-1.447-1.305a3.44 3.44 0 01-.475-1.78c0-1.09.427-1.976 1.281-2.657.855-.68 2.136-1.02 3.844-1.02h2.99v-.285c0-.806-.23-1.4-.688-1.779-.459-.38-1.029-.57-1.709-.57-.617 0-1.154.15-1.613.451-.459.285-.744.712-.854 1.282h-2.966c.079-.855.364-1.598.854-2.23a4.843 4.843 0 011.946-1.448c.791-.348 1.676-.522 2.657-.522 1.677 0 2.997.42 3.962 1.258.965.838 1.448 2.024 1.448 3.559v7.236h-2.587l-.284-1.898a4.358 4.358 0 01-1.471 1.566c-.617.411-1.416.617-2.397.617zm.688-2.373c.87 0 1.543-.285 2.017-.854.49-.57.799-1.273.925-2.112h-2.586c-.806 0-1.384.15-1.732.451-.348.285-.522.64-.522 1.068 0 .459.174.814.522 1.067.348.254.807.38 1.376.38zM122.875 24.8c-1.234 0-2.222-.302-2.966-.902-.743-.602-1.115-1.67-1.115-3.204V15.57h-2.017v-2.54h2.017l.356-3.155h2.681v3.156h3.179v2.538h-3.179v5.15c0 .569.119.964.356 1.185.253.206.68.309 1.281.309h1.471v2.586h-2.064zM138.024 24.847c-1.217 0-2.317-.238-3.297-.712-.981-.49-1.764-1.226-2.349-2.207-.57-.98-.855-2.222-.855-3.725V7.953h3.037v10.274c0 1.297.309 2.262.926 2.895.632.632 1.502.949 2.61.949 1.091 0 1.953-.317 2.586-.95.633-.632.949-1.597.949-2.894V7.953h3.037v10.25c0 1.503-.301 2.745-.902 3.725a5.713 5.713 0 01-2.42 2.207c-.996.474-2.104.712-3.322.712zM147.768 24.562V7.953h3.037v16.609h-3.037z"
    fill="#0F172A" />
</svg>